#!OML:ASF E:\Steps\Project 1\Capture day 1\Session 2\Subject.ASF
:FULLY-SPECIFIED
:DEGREES
298
root 9.67812 23.5873 8.73807 23.7896 -54.3761 -355.522
lowerback -27.7013 -1.6186 -3.78711
upperback -4.81533 -1.17969 -0.629196
thorax 10.0015 -0.773606 1.03979
lowerneck -0.803071 7.37951 -1.82135
upperneck -1.47233 9.88787 3.33034
head -0.58926 4.93845 1.27393
rclavicle -1.6847e-014 5.76476e-015
rhumerus -39.8009 8.40718 -85.7535
rradius 51.8667
rwrist -7.47763
rhand -6.17782 -46.4892
rfingers 7.12502
rthumb 19.6614 -75.515
lclavicle -1.6847e-014 5.76476e-015
lhumerus -25.8156 -34.1665 89.6919
lradius 53.5775
lwrist 0.267901
lhand -26.924 -21.9696
lfingers 7.12502
lthumb -0.346676 8.00988
rfemur -34.5888 6.37705 14.0731
rtibia 18.3523
rfoot 16.6363 -16.3726
rtoes -27.3156
lfemur -38.0614 -7.67806 -14.3357
ltibia 19.3596
lfoot 26.2642 7.76352
ltoes -53.5356
299
root 9.67132 23.5685 8.75847 23.9341 -52.723 -355.751
lowerback -27.7371 -1.46857 -3.69626
upperback -4.79151 -0.995053 -0.668452
thorax 10.0365 -0.680001 1.00893
lowerneck -0.734988 6.93965 -1.98058
upperneck -1.5334 9.3088 3.80067
head -0.636622 4.64638 1.44802
rclavicle -4.79568e-014 1.98785e-014
rhumerus -39.8122 8.73951 -85.3993
rradius 52.0868
rwrist -7.52804
rhand -5.35565 -46.3919
rfingers 7.12502
rthumb 20.4517 -75.3348
lclavicle -4.79568e-014 1.98785e-014
lhumerus -25.4089 -33.8174 88.812
lradius 53.3038
lwrist 0.576269
lhand -27.3287 -21.5548
lfingers 7.12502
lthumb -0.737592 8.42363
rfemur -34.4575 6.61351 13.6535
rtibia 18.0361
rfoot 16.4248 -16.6403
rtoes -27.197
lfemur -37.57 -7.83224 -14.1758
ltibia 18.9777
lfoot 25.8477 9.94147
ltoes -51.1727
300
root 9.68143 23.5578 8.73341 22.5558 -50.9446 -354.599
lowerback -26.6146 -1.71411 -4.77857
upperback -4.80538 -1.03007 -0.849738
thorax 9.46039 -0.711771 1.43473
lowerneck -1.2941 6.64352 -2.52286
upperneck -0.770091 8.91168 4.78871
head -0.36931 4.45978 1.89161
rclavicle 1.22004e-014 3.4191e-014
rhumerus -39.9279 9.1499 -85.0754
rradius 52.4694
rwrist -7.59706
rhand -4.73191 -46.3975
rfingers 7.12502
rthumb 21.051 -75.2749
lclavicle 1.22004e-014 3.4191e-014
lhumerus -25.0433 -33.3838 87.8025
lradius 53.1494
lwrist 0.981858
lhand -27.6583 -21.101
lfingers 7.12502
lthumb -1.05592 8.87615
rfemur -34.1527 7.27036 12.0132
rtibia 18.039
rfoot 15.0033 -18.6113
rtoes -22.4686
lfemur -37.1003 -7.99458 -15.0026
ltibia 19.0999
lfoot 25.5548 11.2866
ltoes -49.5544
301
root 9.67016 23.5129 8.75717 22.7429 -49.4292 -354.829
lowerback -26.6999 -1.62626 -4.62851
upperback -4.76601 -0.934219 -0.934297
thorax 9.54017 -0.659386 1.28543
lowerneck -1.34076 6.29267 -3.38524
upperneck -0.303832 8.44441 4.99031
head -0.245667 4.23325 2.11985
rclavicle 8.62104e-014 2.84262e-014
rhumerus -39.8346 9.65674 -84.824
rradius 52.7171
rwrist -7.62668
rhand -4.08207 -46.2459
rfingers 7.12502
rthumb 21.6751 -75.0526
lclavicle 8.62104e-014 2.84262e-014
lhumerus -24.692 -32.6315 86.5456
lradius 52.9838
lwrist 1.0532
lhand -27.7226 -21.0308
lfingers 7.12502
lthumb -1.11798 8.94599
rfemur -34.0376 7.05991 11.8797
rtibia 17.8916
rfoot 15.1766 -17.861
rtoes -25.3115
lfemur -36.6174 -7.73057 -15.1398
ltibia 18.8018
lfoot 25.4755 12.2427
ltoes -49.2428
302
root 9.67392 23.4795 8.73915 22.8 -47.5568 -354.875
lowerback -26.0804 -1.83195 -4.94328
upperback -4.89802 -1.15576 -0.875306
thorax 9.09234 -0.761111 1.46987
lowerneck -1.23067 5.76615 -4.38728
upperneck -0.263218 7.75555 6.04744
head -0.308953 3.88999 2.64522
rclavicle 3.68994e-014 4.73108e-014
rhumerus -39.9069 10.5657 -84.6126
rradius 53.1199
rwrist -7.86215
rhand -3.75984 -46.1377
rfingers 7.12502
rthumb 21.9846 -74.9083
lclavicle 3.68994e-014 4.73108e-014
lhumerus -24.4013 -31.6491 85.274
lradius 52.8203
lwrist 0.881028
lhand -27.6081 -21.1052
lfingers 7.12502
lthumb -1.00738 8.87221
rfemur -34.1989 7.37531 11.3793
rtibia 17.921
rfoot 14.5805 -18.4462
rtoes -25.2461
lfemur -36.7582 -7.33487 -15.2407
ltibia 19.1095
lfoot 25.385 13.2472
ltoes -47.5533
303
root 9.65914 23.4093 8.77256 23.4271 -45.955 -355.474
lowerback -26.4135 -1.71846 -4.54677
upperback -4.89271 -1.09477 -0.834751
thorax 9.26081 -0.722134 1.30279
lowerneck -1.00241 5.79838 -4.19673
upperneck -0.472582 7.79471 5.43115
head -0.380385 3.90541 2.39631
rclavicle -7.97872e-014 -2.88238e-014
rhumerus -39.9511 11.2301 -84.2985
rradius 53.5321
rwrist -8.11307
rhand -3.85037 -46.2077
rfingers 7.12502
rthumb 21.8976 -74.9886
lclavicle -7.97872e-014 -2.88238e-014
lhumerus -24.0767 -30.8069 84.1197
lradius 52.764
lwrist 1.0507
lhand -27.7993 -20.8645
lfingers 7.12502
lthumb -1.19205 9.11196
rfemur -34.139 7.33972 11.4981
rtibia 17.636
rfoot 14.2921 -18.2562
rtoes -25.4831
lfemur -36.4512 -7.07398 -15.0509
ltibia 18.8222
lfoot 24.7479 15.1482
ltoes -44.0737
